name C:\Users\r0593348\3dpredictsim\Results\Batchsim_tmt_linear\Pog_s1_tmt_aCst_d00_k2000_ig24.mot
datacolumns 128
datarows 4
range 0.00000000 0.03221091
endheader
time	pelvis_tilt	pelvis_list	pelvis_rotation	pelvis_tx	pelvis_ty	pelvis_tz	hip_flexion_l	hip_adduction_l	hip_rotation_l	hip_flexion_r	hip_adduction_r	hip_rotation_r	knee_angle_l	knee_angle_r	ankle_angle_l	ankle_angle_r	subtalar_angle_l	subtalar_angle_r	tmt_angle_l	tmt_angle_r	mtp_angle_l	mtp_angle_r	lumbar_extension	lumbar_bending	lumbar_rotation	arm_flex_l	arm_add_l	arm_rot_l	arm_flex_r	arm_add_r	arm_rot_r	elbow_flex_l	elbow_flex_r	pro_sup_l	pro_sup_r	glut_med1_l/activation	glut_med2_l/activation	glut_med3_l/activation	glut_min1_l/activation	glut_min2_l/activation	glut_min3_l/activation	semimem_l/activation	semiten_l/activation	bifemlh_l/activation	bifemsh_l/activation	sar_l/activation	add_long_l/activation	add_brev_l/activation	add_mag1_l/activation	add_mag2_l/activation	add_mag3_l/activation	tfl_l/activation	pect_l/activation	grac_l/activation	glut_max1_l/activation	glut_max2_l/activation	glut_max3_l/activation	iliacus_l/activation	psoas_l/activation	quad_fem_l/activation	gem_l/activation	peri_l/activation	rect_fem_l/activation	vas_med_l/activation	vas_int_l/activation	vas_lat_l/activation	med_gas_l/activation	lat_gas_l/activation	soleus_l/activation	tib_post_l/activation	flex_dig_l/activation	flex_hal_l/activation	tib_ant_l/activation	per_brev_l/activation	per_long_l/activation	per_tert_l/activation	ext_dig_l/activation	ext_hal_l/activation	ercspn_l/activation	intobl_l/activation	extobl_l/activation	glut_med1_r/activation	glut_med2_r/activation	glut_med3_r/activation	glut_min1_r/activation	glut_min2_r/activation	glut_min3_r/activation	semimem_r/activation	semiten_r/activation	bifemlh_r/activation	bifemsh_r/activation	sar_r/activation	add_long_r/activation	add_brev_r/activation	add_mag1_r/activation	add_mag2_r/activation	add_mag3_r/activation	tfl_r/activation	pect_r/activation	grac_r/activation	glut_max1_r/activation	glut_max2_r/activation	glut_max3_r/activation	iliacus_r/activation	psoas_r/activation	quad_fem_r/activation	gem_r/activation	peri_r/activation	rect_fem_r/activation	vas_med_r/activation	vas_int_r/activation	vas_lat_r/activation	med_gas_r/activation	lat_gas_r/activation	soleus_r/activation	tib_post_r/activation	flex_dig_r/activation	flex_hal_r/activation	tib_ant_r/activation	per_brev_r/activation	per_long_r/activation	per_tert_r/activation	ext_dig_r/activation	ext_hal_r/activation	ercspn_r/activation	intobl_r/activation	extobl_r/activation	
          0.00000000	         -2.92965535	         -2.21424820	          5.25770742	          0.00000000	          0.85853080	         -0.00218661	        -18.10546383	         -1.69022295	          6.99482990	         31.60761620	          3.08184249	         -1.90041689	         -6.02989186	        -14.63529279	          1.56499094	          7.13065602	          9.77778073	         -2.88901958	          0.51537238	          0.01806581	         21.07271042	         -0.12803781	         -2.04821974	          0.54094752	         -1.95406920	          7.80646107	        -13.45110838	         16.52694382	         -8.77886099	        -13.50973432	          6.27876305	         35.63494123	         14.51018272	         86.51662706	         86.51662706	          0.32516637	          0.11387953	          0.08193230	          0.34561513	          0.22658355	          0.11387984	          0.05000088	          0.05000009	          0.05000006	          0.07999964	          0.11388207	          0.05000007	          0.05000006	          0.05000007	          0.05000019	          0.05000015	          0.33246593	          0.05000030	          0.05000024	          0.05000665	          0.05000160	          0.05000058	          0.38654197	          0.63290026	          0.05000013	          0.05000037	          0.05698277	          0.20573682	          0.05000057	          0.05000034	          0.05000036	          0.33503718	          0.44798212	          0.31772053	          0.27436700	          0.28624845	          0.38966378	          0.05000001	          0.06063508	          0.16112040	          0.05000009	          0.05000002	          0.05000009	          0.05000000	          0.05000000	          0.05000001	          0.09797852	          0.05000007	          0.05894722	          0.05000005	          0.05000007	          0.05000023	          0.05894747	          0.05894751	          0.20157799	          0.05000023	          0.05000085	          0.10518233	          0.15788237	          0.21483383	          0.15948608	          0.10791236	          0.05894748	          0.05016206	          0.05895568	          0.05523277	          0.06949591	          0.10822135	          0.05000006	          0.05000010	          0.24285817	          0.05149785	          0.05000018	          0.05000020	          0.09663577	          0.10067820	          0.08538056	          0.05894743	          0.05240200	          0.05894746	          0.05000002	          0.05000039	          0.05000101	          0.49261365	          0.37415793	          0.21718528	          0.28511432	          0.54454687	          0.27738815	          0.07704308	          0.11096502	          0.11388839	
          0.01073697	         -2.92515066	         -2.30635517	          5.55358003	          0.01595952	          0.85745460	         -0.00199449	        -17.98314656	         -1.98877378	          6.76931219	         31.03106606	          3.43030701	         -1.69658522	         -7.94530529	        -14.50733017	          0.83462076	          6.57035275	         10.72298803	         -3.37071007	          0.49406548	          0.02169130	         22.14118602	         -0.10865599	         -1.86301650	          0.76133513	         -2.02854077	          7.69484017	        -13.45659500	         16.79038977	         -9.78044562	        -13.50311262	          6.17430436	         36.72059094	         14.33339086	         86.51662706	         86.51662706	          0.27581031	          0.09659408	          0.06949604	          0.29315521	          0.19219109	          0.09659435	          0.05000214	          0.05000024	          0.05000034	          0.06785673	          0.09659630	          0.11898566	          0.05055980	          0.05997960	          0.05001192	          0.06949435	          0.28200190	          0.06297709	          0.05000108	          0.05000089	          0.05000069	          0.05000076	          0.32786986	          0.56260711	          0.05000022	          0.05005921	          0.05894750	          0.17450864	          0.05000699	          0.18660657	          0.16476185	          0.28418281	          0.37998417	          0.27165066	          0.25112594	          0.24280050	          0.33051861	          0.05000001	          0.05143167	          0.16629432	          0.05000006	          0.05000001	          0.05000006	          0.05000000	          0.06949608	          0.05000000	          0.08310669	          0.05894722	          0.05000005	          0.05894765	          0.05894745	          0.05000034	          0.05000003	          0.05000015	          0.17324470	          0.05000020	          0.05000064	          0.08921738	          0.13391796	          0.22648274	          0.17858747	          0.10156214	          0.05000013	          0.05000101	          0.05000711	          0.05000341	          0.05894740	          0.11445974	          0.05094840	          0.05276838	          0.50980868	          0.13426095	          0.07761740	          0.06949616	          0.18754446	          0.19303850	          0.16544194	          0.05000000	          0.05000000	          0.05000000	          0.05000008	          0.05894761	          0.05001365	          0.54724471	          0.33575043	          0.22599828	          0.45908418	          0.58269377	          0.24498982	          0.06534893	          0.09412195	          0.09660158	
          0.02147394	         -2.91663175	         -2.39406572	          5.82638435	          0.03222599	          0.85639939	         -0.00181163	        -17.78696278	         -2.27917637	          6.53308873	         30.32793820	          3.72735091	         -1.42938855	         -9.99284279	        -14.91680646	         -0.05488335	          5.95396409	         11.62879360	         -3.87575503	          0.46424612	         -0.01562985	         23.07192129	         -0.15169817	         -1.65415187	          0.98385501	         -2.09341390	          7.49827401	        -13.46136455	         16.98948967	        -10.80686278	        -13.49829755	          6.09779659	         37.76540465	         14.21967723	         86.51662706	         86.51662706	          0.34569539	          0.08193234	          0.05894745	          0.24865808	          0.16301896	          0.08193258	          0.05000101	          0.05000031	          0.05000029	          0.05755696	          0.08193430	          0.14286770	          0.10417875	          0.05894810	          0.05894764	          0.05894745	          0.23919780	          0.08429778	          0.05011586	          0.05001009	          0.05001150	          0.05894198	          0.27810346	          0.53750869	          0.05894649	          0.05000054	          0.05000007	          0.14802047	          0.09843294	          0.15828227	          0.13975334	          0.24104749	          0.32230742	          0.23041755	          0.21300827	          0.20594660	          0.28035018	          0.05000000	          0.05000017	          0.18472497	          0.05000004	          0.05000001	          0.05000005	          0.05558070	          0.05894747	          0.05000102	          0.26746219	          0.05000003	          0.30225691	          0.05000019	          0.05000007	          0.22419052	          0.07432110	          0.05000011	          0.15691908	          0.05000003	          0.05000018	          0.08193408	          0.23086192	          0.19210586	          0.15148117	          0.13210483	          0.05000026	          0.05895307	          0.11632491	          0.05000005	          0.05000006	          0.11690578	          0.05894721	          0.05000094	          0.43242625	          0.11388190	          0.16098892	          0.05894754	          0.15907765	          0.16373777	          0.14033001	          0.06343804	          0.06164283	          0.05894767	          0.05894747	          0.05000018	          0.05000020	          0.46417995	          0.34296963	          0.19169467	          0.38940114	          0.57808017	          0.20780350	          0.05542981	          0.09956923	          0.08193870	
          0.03221091	         -2.90575449	         -2.48090277	          6.06856775	          0.04864283	          0.85536891	         -0.00161860	        -17.49527711	         -2.56078289	          6.29217089	         29.49880320	          3.98979843	         -1.15212317	        -12.19009632	        -15.36526213	         -1.09500939	          5.51951877	         12.47648517	         -4.37435376	          0.43114939	         -0.01141096	         23.81260378	         -0.15972511	         -1.43735450	          1.21112716	         -2.14881074	          7.23890892	        -13.46902604	         17.13601662	        -11.81657685	        -13.49668393	          6.06822484	         38.75995803	         14.14098953	         86.51662706	         86.51662706	          0.30578003	          0.06949606	          0.05000004	          0.35962815	          0.13827479	          0.06949628	          0.05269640	          0.05000007	          0.05000006	          0.05000009	          0.06949792	          0.12832470	          0.08836581	          0.05000062	          0.05000047	          0.05000022	          0.26315013	          0.07150344	          0.05000022	          0.05000057	          0.05000034	          0.05000022	          0.23589097	          0.50004630	          0.05000004	          0.05000027	          0.05000017	          0.13425829	          0.08349228	          0.13425744	          0.12659912	          0.20445955	          0.27338527	          0.19544311	          0.18067636	          0.17468660	          0.23779665	          0.05000001	          0.09749227	          0.18513527	          0.05000007	          0.05000009	          0.05000009	          0.07460708	          0.05000000	          0.05000000	          0.31640965	          0.28685908	          0.36805649	          0.18310484	          0.20658926	          0.19016148	          0.06304016	          0.09662509	          0.13310078	          0.08193257	          0.05894522	          0.06949755	          0.19582004	          0.16294670	          0.12848837	          0.15356077	          0.05000015	          0.05000487	          0.09866850	          0.22215778	          0.16960195	          0.13176034	          0.05000003	          0.05000003	          0.36678949	          0.09659619	          0.13655296	          0.05000006	          0.13493174	          0.13888459	          0.11902975	          0.05380896	          0.05228625	          0.05000017	          0.05000000	          0.05894750	          0.05331956	          0.58978669	          0.42507324	          0.21857447	          0.64413122	          0.64619017	          0.33283939	          0.07742632	          0.08949843	          0.06950145	
